# xmcd CD database file
#
# Track frame offsets:
#	150
#	17918
#	36037
#	53753
#
# Disc length: 954 seconds
#
# Revision: 1
# Processed by: cddbd v1.5.1PL0 Copyright (c) Steve Scherf et al.
# Submitted via: CDex 1.51
#
DISCID=2903b804
DTITLE=桜月キラ(伊月ゆい)＆桜月ユラ(網掛裕美) - 双恋 キャラクターソングシリーズ#1
DYEAR=2004
DGENRE=Anime
TTITLE0=TWINS REVOLUTION
TTITLE1=星夢PAS DE DEUX
TTITLE2=TWINS REVOLUTION (off vocal)
TTITLE3=星夢PAS DE DEUX (off vocal)
EXTD=YEAR: 2004
EXTT0=
EXTT1=
EXTT2=
EXTT3=
PLAYORDER=
